<svg xmlns="http://www.w3.org/2000/svg" xmlns:xlink="http://www.w3.org/1999/xlink" width="444" zoomAndPan="magnify" viewBox="0 0 333 147.000002" height="196" preserveAspectRatio="xMidYMid meet" version="1.0"><defs><g/><clipPath id="4c54e5391d"><rect x="0" width="295" y="0" height="96"/></clipPath></defs><g fill="#ffffff" fill-opacity="1"><g transform="translate(19.359541, 101.953238)"><g><path d="M 9.078125 -62.875 C 10.566406 -62.875 11.820312 -62.242188 12.84375 -60.984375 C 13.457031 -60.140625 13.765625 -59.222656 13.765625 -58.234375 L 13.765625 -58.1875 C 13.765625 -56.550781 13.003906 -55.21875 11.484375 -54.1875 C 10.691406 -53.75 9.890625 -53.53125 9.078125 -53.53125 C 7.492188 -53.53125 6.175781 -54.234375 5.125 -55.640625 C 4.632812 -56.460938 4.390625 -57.3125 4.390625 -58.1875 L 4.390625 -58.234375 C 4.390625 -59.804688 5.085938 -61.101562 6.484375 -62.125 C 7.304688 -62.625 8.171875 -62.875 9.078125 -62.875 Z M 11.875 -44.90625 L 11.875 -0.046875 C 11.875 -0.015625 11.863281 0 11.84375 0 L 6.3125 0 C 6.28125 0 6.265625 -0.015625 6.265625 -0.046875 L 6.265625 -44.90625 Z M 11.875 -44.90625 "/></g></g></g><g fill="#ffffff" fill-opacity="1"><g transform="translate(37.509971, 101.953238)"><g><path d="M 23.453125 -44.90625 L 23.671875 -44.90625 C 27.679688 -44.90625 31.410156 -43.675781 34.859375 -41.21875 C 35.328125 -40.863281 35.851562 -40.425781 36.4375 -39.90625 C 37.601562 -38.757812 38.273438 -38.039062 38.453125 -37.75 C 38.890625 -37.25 39.300781 -36.679688 39.6875 -36.046875 C 41.695312 -32.859375 42.703125 -29.4375 42.703125 -25.78125 L 42.703125 -0.046875 C 42.703125 -0.015625 42.6875 0 42.65625 0 L 37.265625 0 C 37.234375 0 37.21875 -0.015625 37.21875 -0.046875 L 37.21875 -25.6875 C 37.21875 -29.144531 36.035156 -32.21875 33.671875 -34.90625 C 32.585938 -36.007812 31.8125 -36.695312 31.34375 -36.96875 C 28.976562 -38.601562 26.378906 -39.421875 23.546875 -39.421875 L 23.5 -39.421875 C 20.3125 -39.421875 17.414062 -38.367188 14.8125 -36.265625 C 13.820312 -35.390625 13.148438 -34.703125 12.796875 -34.203125 C 12.097656 -33.296875 11.546875 -32.40625 11.140625 -31.53125 C 10.285156 -29.625 9.859375 -27.765625 9.859375 -25.953125 L 9.859375 -0.046875 C 9.859375 -0.015625 9.847656 0 9.828125 0 L 4.421875 0 C 4.398438 0 4.390625 -0.015625 4.390625 -0.046875 L 4.390625 -25.78125 C 4.390625 -29.957031 5.6875 -33.816406 8.28125 -37.359375 C 8.78125 -37.972656 9.320312 -38.585938 9.90625 -39.203125 C 11.164062 -40.398438 12.101562 -41.171875 12.71875 -41.515625 C 16.050781 -43.773438 19.628906 -44.90625 23.453125 -44.90625 Z M 23.453125 -44.90625 "/></g></g></g><g fill="#ffffff" fill-opacity="1"><g transform="translate(84.595869, 101.953238)"><g><path d="M 23.453125 -44.90625 L 23.671875 -44.90625 C 27.679688 -44.90625 31.410156 -43.675781 34.859375 -41.21875 C 35.328125 -40.863281 35.851562 -40.425781 36.4375 -39.90625 C 37.601562 -38.757812 38.273438 -38.039062 38.453125 -37.75 C 38.890625 -37.25 39.300781 -36.679688 39.6875 -36.046875 C 41.695312 -32.859375 42.703125 -29.4375 42.703125 -25.78125 L 42.703125 -0.046875 C 42.703125 -0.015625 42.6875 0 42.65625 0 L 37.265625 0 C 37.234375 0 37.21875 -0.015625 37.21875 -0.046875 L 37.21875 -25.6875 C 37.21875 -29.144531 36.035156 -32.21875 33.671875 -34.90625 C 32.585938 -36.007812 31.8125 -36.695312 31.34375 -36.96875 C 28.976562 -38.601562 26.378906 -39.421875 23.546875 -39.421875 L 23.5 -39.421875 C 20.3125 -39.421875 17.414062 -38.367188 14.8125 -36.265625 C 13.820312 -35.390625 13.148438 -34.703125 12.796875 -34.203125 C 12.097656 -33.296875 11.546875 -32.40625 11.140625 -31.53125 C 10.285156 -29.625 9.859375 -27.765625 9.859375 -25.953125 L 9.859375 -0.046875 C 9.859375 -0.015625 9.847656 0 9.828125 0 L 4.421875 0 C 4.398438 0 4.390625 -0.015625 4.390625 -0.046875 L 4.390625 -25.78125 C 4.390625 -29.957031 5.6875 -33.816406 8.28125 -37.359375 C 8.78125 -37.972656 9.320312 -38.585938 9.90625 -39.203125 C 11.164062 -40.398438 12.101562 -41.171875 12.71875 -41.515625 C 16.050781 -43.773438 19.628906 -44.90625 23.453125 -44.90625 Z M 23.453125 -44.90625 "/></g></g></g><g fill="#ffffff" fill-opacity="1"><g transform="translate(131.681767, 101.953238)"><g><path d="M 21.140625 -62.875 L 26.796875 -62.875 C 26.816406 -62.875 26.828125 -62.859375 26.828125 -62.828125 L 26.828125 -57.3125 C 26.828125 -57.28125 26.816406 -57.265625 26.796875 -57.265625 L 21.65625 -57.265625 C 20.28125 -57.265625 19.203125 -57.015625 18.421875 -56.515625 C 17.304688 -55.898438 16.472656 -54.90625 15.921875 -53.53125 C 15.710938 -52.894531 15.609375 -52.269531 15.609375 -51.65625 L 15.609375 -44.90625 L 24.546875 -44.90625 C 24.578125 -44.90625 24.59375 -44.890625 24.59375 -44.859375 L 24.59375 -39.328125 C 24.59375 -39.296875 24.578125 -39.28125 24.546875 -39.28125 L 15.609375 -39.28125 L 15.609375 -0.046875 C 15.609375 -0.015625 15.59375 0 15.5625 0 L 10.046875 0 C 10.015625 0 10 -0.015625 10 -0.046875 L 10 -39.28125 L 4.421875 -39.28125 C 4.398438 -39.28125 4.390625 -39.296875 4.390625 -39.328125 L 4.390625 -44.90625 C 4.390625 -44.925781 4.398438 -44.9375 4.421875 -44.9375 L 10 -44.9375 L 10 -51.21875 C 10 -53.320312 10.378906 -55.101562 11.140625 -56.5625 C 11.429688 -57.175781 11.8125 -57.804688 12.28125 -58.453125 C 13.15625 -59.523438 13.925781 -60.285156 14.59375 -60.734375 C 16.644531 -62.160156 18.828125 -62.875 21.140625 -62.875 Z M 21.140625 -62.875 "/></g></g></g><g fill="#ffffff" fill-opacity="1"><g transform="translate(162.896999, 101.953238)"><g><path d="M 4.421875 -62.875 L 10.046875 -62.875 C 10.066406 -62.875 10.078125 -62.859375 10.078125 -62.828125 L 10.078125 -0.046875 C 10.078125 -0.015625 10.066406 0 10.046875 0 L 4.421875 0 C 4.398438 0 4.390625 -0.015625 4.390625 -0.046875 L 4.390625 -62.828125 C 4.390625 -62.859375 4.398438 -62.875 4.421875 -62.875 Z M 4.421875 -62.875 "/></g></g></g><g fill="#ffffff" fill-opacity="1"><g transform="translate(177.364733, 101.953238)"><g><path d="M 27.75 -45.953125 L 27.96875 -45.953125 C 32.738281 -45.953125 37.179688 -44.546875 41.296875 -41.734375 C 42.117188 -41.179688 43.039062 -40.4375 44.0625 -39.5 C 45.113281 -38.476562 45.832031 -37.707031 46.21875 -37.1875 C 47.03125 -36.132812 47.671875 -35.210938 48.140625 -34.421875 C 50.304688 -30.648438 51.390625 -26.6875 51.390625 -22.53125 L 51.390625 -22.3125 C 51.390625 -18.019531 50.21875 -13.929688 47.875 -10.046875 C 45.039062 -5.597656 41.15625 -2.394531 36.21875 -0.4375 C 33.5 0.550781 30.75 1.046875 27.96875 1.046875 L 27.75 1.046875 C 23.425781 1.046875 19.289062 -0.148438 15.34375 -2.546875 C 14.40625 -3.128906 13.320312 -3.945312 12.09375 -5 C 11.019531 -6.050781 10.304688 -6.8125 9.953125 -7.28125 C 9.160156 -8.21875 8.53125 -9.050781 8.0625 -9.78125 C 5.613281 -13.726562 4.390625 -17.921875 4.390625 -22.359375 L 4.390625 -22.578125 C 4.390625 -27.054688 5.660156 -31.296875 8.203125 -35.296875 C 8.816406 -36.265625 9.601562 -37.273438 10.5625 -38.328125 C 11.46875 -39.285156 12.203125 -40 12.765625 -40.46875 C 14.015625 -41.457031 15.066406 -42.1875 15.921875 -42.65625 C 19.660156 -44.851562 23.601562 -45.953125 27.75 -45.953125 Z M 10 -22.453125 C 10 -18.097656 11.472656 -14.164062 14.421875 -10.65625 C 15.566406 -9.457031 16.253906 -8.800781 16.484375 -8.6875 C 19.847656 -5.9375 23.648438 -4.5625 27.890625 -4.5625 L 27.9375 -4.5625 C 32.019531 -4.5625 35.757812 -5.890625 39.15625 -8.546875 C 40.414062 -9.628906 41.335938 -10.550781 41.921875 -11.3125 C 42.828125 -12.476562 43.539062 -13.632812 44.0625 -14.78125 C 45.207031 -17.289062 45.78125 -19.742188 45.78125 -22.140625 L 45.78125 -22.75 C 45.78125 -25.738281 44.945312 -28.691406 43.28125 -31.609375 C 41.144531 -35.148438 38.085938 -37.695312 34.109375 -39.25 C 32.097656 -39.976562 30.023438 -40.34375 27.890625 -40.34375 C 23.390625 -40.34375 19.367188 -38.789062 15.828125 -35.6875 C 14.742188 -34.632812 14.015625 -33.832031 13.640625 -33.28125 C 11.210938 -30.007812 10 -26.398438 10 -22.453125 Z M 10 -22.453125 "/></g></g></g><g fill="#ffffff" fill-opacity="1"><g transform="translate(233.131272, 101.953238)"><g><path d="M 4.421875 -44.90625 L 10.265625 -44.90625 C 10.265625 -44.875 10.410156 -44.40625 10.703125 -43.5 C 10.703125 -43.46875 12.734375 -36.921875 16.796875 -23.859375 C 19.421875 -15.316406 20.984375 -10.257812 21.484375 -8.6875 C 25.078125 -18.332031 27.664062 -25.210938 29.25 -29.328125 C 29.25 -29.359375 30.941406 -33.890625 34.328125 -42.921875 C 34.796875 -44.210938 35.046875 -44.875 35.078125 -44.90625 L 41 -44.90625 L 41.046875 -44.859375 C 35.515625 -30.179688 32.734375 -22.769531 32.703125 -22.625 C 29.492188 -14.113281 27.4375 -8.601562 26.53125 -6.09375 C 26.5 -6.0625 25.722656 -4.03125 24.203125 0 L 18.28125 0 C 18.226562 -0.0820312 18.097656 -0.503906 17.890625 -1.265625 C 16.046875 -7.140625 14.015625 -13.691406 11.796875 -20.921875 C 7.847656 -33.691406 5.492188 -41.304688 4.734375 -43.765625 L 4.390625 -44.859375 Z M 71.6875 -44.90625 L 71.6875 -44.859375 C 67.445312 -31.148438 65.164062 -23.738281 64.84375 -22.625 C 60.8125 -9.644531 58.691406 -2.804688 58.484375 -2.109375 L 57.796875 0 L 51.90625 0 C 51.882812 0 51.679688 -0.507812 51.296875 -1.53125 C 51.265625 -1.59375 49.085938 -7.425781 44.765625 -19.03125 C 41.203125 -28.5 39.363281 -33.378906 39.25 -33.671875 L 39.25 -33.71875 L 42.21875 -41.65625 L 42.265625 -41.65625 C 42.296875 -41.5625 44.609375 -35.378906 49.203125 -23.109375 C 51.710938 -16.441406 53.519531 -11.644531 54.625 -8.71875 C 58.375 -20.789062 60.523438 -27.734375 61.078125 -29.546875 C 63.503906 -37.410156 65.097656 -42.53125 65.859375 -44.90625 Z M 71.6875 -44.90625 "/></g></g></g><g transform="matrix(1, 0, 0, 1, 19, 24)"><g clip-path="url(#4c54e5391d)"><g fill="#000000" fill-opacity="1"><g transform="translate(0.35648, 76.273165)"><g><path d="M 9.21875 -63.828125 C 10.726562 -63.828125 12.003906 -63.1875 13.046875 -61.90625 C 13.660156 -61.050781 13.96875 -60.117188 13.96875 -59.109375 L 13.96875 -59.0625 C 13.96875 -57.40625 13.195312 -56.054688 11.65625 -55.015625 C 10.851562 -54.566406 10.039062 -54.34375 9.21875 -54.34375 C 7.613281 -54.34375 6.273438 -55.054688 5.203125 -56.484375 C 4.703125 -57.316406 4.453125 -58.175781 4.453125 -59.0625 L 4.453125 -59.109375 C 4.453125 -60.710938 5.164062 -62.035156 6.59375 -63.078125 C 7.414062 -63.578125 8.289062 -63.828125 9.21875 -63.828125 Z M 12.0625 -45.578125 L 12.0625 -0.046875 C 12.0625 -0.015625 12.046875 0 12.015625 0 L 6.40625 0 C 6.375 0 6.359375 -0.015625 6.359375 -0.046875 L 6.359375 -45.578125 Z M 12.0625 -45.578125 "/></g></g><g transform="translate(18.78381, 76.273165)"><g><path d="M 23.8125 -45.578125 L 24.03125 -45.578125 C 28.101562 -45.578125 31.890625 -44.332031 35.390625 -41.84375 C 35.859375 -41.488281 36.390625 -41.039062 36.984375 -40.5 C 38.171875 -39.34375 38.851562 -38.617188 39.03125 -38.328125 C 39.476562 -37.816406 39.894531 -37.238281 40.28125 -36.59375 C 42.332031 -33.351562 43.359375 -29.878906 43.359375 -26.171875 L 43.359375 -0.046875 C 43.359375 -0.015625 43.34375 0 43.3125 0 L 37.828125 0 C 37.796875 0 37.78125 -0.015625 37.78125 -0.046875 L 37.78125 -26.078125 C 37.78125 -29.578125 36.582031 -32.695312 34.1875 -35.4375 C 33.082031 -36.5625 32.296875 -37.253906 31.828125 -37.515625 C 29.421875 -39.179688 26.78125 -40.015625 23.90625 -40.015625 L 23.859375 -40.015625 C 20.617188 -40.015625 17.679688 -38.945312 15.046875 -36.8125 C 14.035156 -35.914062 13.351562 -35.21875 13 -34.71875 C 12.28125 -33.800781 11.71875 -32.894531 11.3125 -32 C 10.445312 -30.070312 10.015625 -28.1875 10.015625 -26.34375 L 10.015625 -0.046875 C 10.015625 -0.015625 10 0 9.96875 0 L 4.5 0 C 4.46875 0 4.453125 -0.015625 4.453125 -0.046875 L 4.453125 -26.171875 C 4.453125 -30.410156 5.769531 -34.328125 8.40625 -37.921875 C 8.914062 -38.546875 9.46875 -39.171875 10.0625 -39.796875 C 11.332031 -41.003906 12.28125 -41.789062 12.90625 -42.15625 C 16.289062 -44.4375 19.925781 -45.578125 23.8125 -45.578125 Z M 23.8125 -45.578125 "/></g></g><g transform="translate(66.588041, 76.273165)"><g><path d="M 23.8125 -45.578125 L 24.03125 -45.578125 C 28.101562 -45.578125 31.890625 -44.332031 35.390625 -41.84375 C 35.859375 -41.488281 36.390625 -41.039062 36.984375 -40.5 C 38.171875 -39.34375 38.851562 -38.617188 39.03125 -38.328125 C 39.476562 -37.816406 39.894531 -37.238281 40.28125 -36.59375 C 42.332031 -33.351562 43.359375 -29.878906 43.359375 -26.171875 L 43.359375 -0.046875 C 43.359375 -0.015625 43.34375 0 43.3125 0 L 37.828125 0 C 37.796875 0 37.78125 -0.015625 37.78125 -0.046875 L 37.78125 -26.078125 C 37.78125 -29.578125 36.582031 -32.695312 34.1875 -35.4375 C 33.082031 -36.5625 32.296875 -37.253906 31.828125 -37.515625 C 29.421875 -39.179688 26.78125 -40.015625 23.90625 -40.015625 L 23.859375 -40.015625 C 20.617188 -40.015625 17.679688 -38.945312 15.046875 -36.8125 C 14.035156 -35.914062 13.351562 -35.21875 13 -34.71875 C 12.28125 -33.800781 11.71875 -32.894531 11.3125 -32 C 10.445312 -30.070312 10.015625 -28.1875 10.015625 -26.34375 L 10.015625 -0.046875 C 10.015625 -0.015625 10 0 9.96875 0 L 4.5 0 C 4.46875 0 4.453125 -0.015625 4.453125 -0.046875 L 4.453125 -26.171875 C 4.453125 -30.410156 5.769531 -34.328125 8.40625 -37.921875 C 8.914062 -38.546875 9.46875 -39.171875 10.0625 -39.796875 C 11.332031 -41.003906 12.28125 -41.789062 12.90625 -42.15625 C 16.289062 -44.4375 19.925781 -45.578125 23.8125 -45.578125 Z M 23.8125 -45.578125 "/></g></g><g transform="translate(114.392272, 76.273165)"><g><path d="M 21.453125 -63.828125 L 27.203125 -63.828125 C 27.222656 -63.828125 27.234375 -63.8125 27.234375 -63.78125 L 27.234375 -58.171875 C 27.234375 -58.140625 27.222656 -58.125 27.203125 -58.125 L 21.984375 -58.125 C 20.585938 -58.125 19.488281 -57.875 18.6875 -57.375 C 17.5625 -56.75 16.71875 -55.738281 16.15625 -54.34375 C 15.945312 -53.695312 15.84375 -53.0625 15.84375 -52.4375 L 15.84375 -45.578125 L 24.921875 -45.578125 C 24.953125 -45.578125 24.96875 -45.5625 24.96875 -45.53125 L 24.96875 -39.921875 C 24.96875 -39.890625 24.953125 -39.875 24.921875 -39.875 L 15.84375 -39.875 L 15.84375 -0.046875 C 15.84375 -0.015625 15.828125 0 15.796875 0 L 10.1875 0 C 10.15625 0 10.140625 -0.015625 10.140625 -0.046875 L 10.140625 -39.875 L 4.5 -39.875 C 4.46875 -39.875 4.453125 -39.890625 4.453125 -39.921875 L 4.453125 -45.578125 C 4.453125 -45.609375 4.46875 -45.625 4.5 -45.625 L 10.140625 -45.625 L 10.140625 -51.984375 C 10.140625 -54.117188 10.53125 -55.929688 11.3125 -57.421875 C 11.601562 -58.046875 11.988281 -58.679688 12.46875 -59.328125 C 13.351562 -60.429688 14.140625 -61.203125 14.828125 -61.640625 C 16.898438 -63.097656 19.109375 -63.828125 21.453125 -63.828125 Z M 21.453125 -63.828125 "/></g></g><g transform="translate(146.083718, 76.273165)"><g><path d="M 4.5 -63.828125 L 10.1875 -63.828125 C 10.21875 -63.828125 10.234375 -63.8125 10.234375 -63.78125 L 10.234375 -0.046875 C 10.234375 -0.015625 10.21875 0 10.1875 0 L 4.5 0 C 4.46875 0 4.453125 -0.015625 4.453125 -0.046875 L 4.453125 -63.78125 C 4.453125 -63.8125 4.46875 -63.828125 4.5 -63.828125 Z M 4.5 -63.828125 "/></g></g><g transform="translate(160.772169, 76.273165)"><g><path d="M 28.171875 -46.640625 L 28.390625 -46.640625 C 33.234375 -46.640625 37.742188 -45.21875 41.921875 -42.375 C 42.753906 -41.8125 43.691406 -41.054688 44.734375 -40.109375 C 45.796875 -39.066406 46.519531 -38.28125 46.90625 -37.75 C 47.738281 -36.675781 48.394531 -35.738281 48.875 -34.9375 C 51.070312 -31.113281 52.171875 -27.09375 52.171875 -22.875 L 52.171875 -22.65625 C 52.171875 -18.289062 50.984375 -14.132812 48.609375 -10.1875 C 45.722656 -5.675781 41.773438 -2.425781 36.765625 -0.4375 C 34.003906 0.5625 31.210938 1.0625 28.390625 1.0625 L 28.171875 1.0625 C 23.785156 1.0625 19.585938 -0.148438 15.578125 -2.578125 C 14.628906 -3.171875 13.53125 -4.003906 12.28125 -5.078125 C 11.1875 -6.140625 10.460938 -6.910156 10.109375 -7.390625 C 9.304688 -8.335938 8.664062 -9.179688 8.1875 -9.921875 C 5.695312 -13.929688 4.453125 -18.191406 4.453125 -22.703125 L 4.453125 -22.921875 C 4.453125 -27.460938 5.742188 -31.765625 8.328125 -35.828125 C 8.953125 -36.804688 9.753906 -37.832031 10.734375 -38.90625 C 11.648438 -39.882812 12.390625 -40.609375 12.953125 -41.078125 C 14.222656 -42.085938 15.289062 -42.832031 16.15625 -43.3125 C 19.957031 -45.53125 23.960938 -46.640625 28.171875 -46.640625 Z M 10.140625 -22.796875 C 10.140625 -18.367188 11.640625 -14.375 14.640625 -10.8125 C 15.796875 -9.59375 16.492188 -8.925781 16.734375 -8.8125 C 20.148438 -6.019531 24.007812 -4.625 28.3125 -4.625 L 28.359375 -4.625 C 32.503906 -4.625 36.300781 -5.972656 39.75 -8.671875 C 41.019531 -9.773438 41.953125 -10.710938 42.546875 -11.484375 C 43.472656 -12.671875 44.203125 -13.84375 44.734375 -15 C 45.890625 -17.550781 46.46875 -20.046875 46.46875 -22.484375 L 46.46875 -23.09375 C 46.46875 -26.125 45.625 -29.125 43.9375 -32.09375 C 41.769531 -35.6875 38.664062 -38.269531 34.625 -39.84375 C 32.582031 -40.582031 30.476562 -40.953125 28.3125 -40.953125 C 23.738281 -40.953125 19.65625 -39.378906 16.0625 -36.234375 C 14.96875 -35.160156 14.226562 -34.34375 13.84375 -33.78125 C 11.375 -30.457031 10.140625 -26.796875 10.140625 -22.796875 Z M 10.140625 -22.796875 "/></g></g><g transform="translate(217.389471, 76.273165)"><g><path d="M 4.5 -45.578125 L 10.421875 -45.578125 C 10.421875 -45.546875 10.566406 -45.070312 10.859375 -44.15625 C 10.859375 -44.125 12.921875 -37.476562 17.046875 -24.21875 C 19.710938 -15.550781 21.300781 -10.414062 21.8125 -8.8125 C 25.457031 -18.601562 28.082031 -25.59375 29.6875 -29.78125 C 29.6875 -29.8125 31.40625 -34.410156 34.84375 -43.578125 C 35.320312 -44.878906 35.578125 -45.546875 35.609375 -45.578125 L 41.609375 -45.578125 L 41.65625 -45.53125 C 36.050781 -30.632812 33.234375 -23.113281 33.203125 -22.96875 C 29.941406 -14.332031 27.847656 -8.738281 26.921875 -6.1875 C 26.898438 -6.15625 26.113281 -4.09375 24.5625 0 L 18.5625 0 C 18.5 -0.09375 18.363281 -0.523438 18.15625 -1.296875 C 16.289062 -7.253906 14.226562 -13.898438 11.96875 -21.234375 C 7.96875 -34.203125 5.582031 -41.929688 4.8125 -44.421875 L 4.453125 -45.53125 Z M 72.78125 -45.578125 L 72.78125 -45.53125 C 68.46875 -31.613281 66.148438 -24.09375 65.828125 -22.96875 C 61.734375 -9.789062 59.582031 -2.847656 59.375 -2.140625 L 58.65625 0 L 52.703125 0 C 52.671875 0 52.460938 -0.519531 52.078125 -1.5625 C 52.046875 -1.613281 49.832031 -7.53125 45.4375 -19.3125 C 41.820312 -28.925781 39.957031 -33.882812 39.84375 -34.1875 L 39.84375 -34.234375 L 42.859375 -42.28125 L 42.90625 -42.28125 C 42.9375 -42.195312 45.28125 -35.921875 49.9375 -23.453125 C 52.488281 -16.691406 54.328125 -11.828125 55.453125 -8.859375 C 59.253906 -21.109375 61.4375 -28.15625 62 -30 C 64.46875 -37.976562 66.085938 -43.171875 66.859375 -45.578125 Z M 72.78125 -45.578125 "/></g></g></g></g></g></svg>