<svg xmlns="http://www.w3.org/2000/svg" xmlns:xlink="http://www.w3.org/1999/xlink" width="443" zoomAndPan="magnify" viewBox="0 0 332.25 144.75" height="193" preserveAspectRatio="xMidYMid meet" version="1.0"><defs><g/><clipPath id="837b791fe8"><rect x="0" width="292" y="0" height="96"/></clipPath></defs><g transform="matrix(1, 0, 0, 1, 22, 23)"><g clip-path="url(#837b791fe8)"><g fill="#000000" fill-opacity="1"><g transform="translate(0.0447478, 76.261614)"><g><path d="M 9.125 -63.15625 C 10.613281 -63.15625 11.875 -62.523438 12.90625 -61.265625 C 13.519531 -60.410156 13.828125 -59.484375 13.828125 -58.484375 L 13.828125 -58.453125 C 13.828125 -56.804688 13.066406 -55.46875 11.546875 -54.4375 C 10.742188 -54 9.9375 -53.78125 9.125 -53.78125 C 7.53125 -53.78125 6.207031 -54.484375 5.15625 -55.890625 C 4.65625 -56.710938 4.40625 -57.566406 4.40625 -58.453125 L 4.40625 -58.484375 C 4.40625 -60.078125 5.109375 -61.382812 6.515625 -62.40625 C 7.335938 -62.90625 8.207031 -63.15625 9.125 -63.15625 Z M 11.9375 -45.109375 L 11.9375 -0.046875 C 11.9375 -0.015625 11.921875 0 11.890625 0 L 6.34375 0 C 6.3125 0 6.296875 -0.015625 6.296875 -0.046875 L 6.296875 -45.109375 Z M 11.9375 -45.109375 "/></g></g><g transform="translate(18.279148, 76.261614)"><g><path d="M 23.5625 -45.109375 L 23.78125 -45.109375 C 27.800781 -45.109375 31.546875 -43.875 35.015625 -41.40625 C 35.484375 -41.050781 36.007812 -40.609375 36.59375 -40.078125 C 37.769531 -38.929688 38.445312 -38.210938 38.625 -37.921875 C 39.0625 -37.421875 39.472656 -36.847656 39.859375 -36.203125 C 41.890625 -33.003906 42.90625 -29.566406 42.90625 -25.890625 L 42.90625 -0.046875 C 42.90625 -0.015625 42.890625 0 42.859375 0 L 37.4375 0 C 37.40625 0 37.390625 -0.015625 37.390625 -0.046875 L 37.390625 -25.8125 C 37.390625 -29.269531 36.203125 -32.351562 33.828125 -35.0625 C 32.742188 -36.175781 31.960938 -36.863281 31.484375 -37.125 C 29.109375 -38.769531 26.5 -39.59375 23.65625 -39.59375 L 23.609375 -39.59375 C 20.410156 -39.59375 17.503906 -38.535156 14.890625 -36.421875 C 13.890625 -35.546875 13.210938 -34.859375 12.859375 -34.359375 C 12.148438 -33.441406 11.59375 -32.546875 11.1875 -31.671875 C 10.332031 -29.765625 9.90625 -27.898438 9.90625 -26.078125 L 9.90625 -0.046875 C 9.90625 -0.015625 9.890625 0 9.859375 0 L 4.453125 0 C 4.421875 0 4.40625 -0.015625 4.40625 -0.046875 L 4.40625 -25.890625 C 4.40625 -30.097656 5.710938 -33.976562 8.328125 -37.53125 C 8.828125 -38.144531 9.367188 -38.757812 9.953125 -39.375 C 11.210938 -40.582031 12.148438 -41.359375 12.765625 -41.703125 C 16.117188 -43.972656 19.71875 -45.109375 23.5625 -45.109375 Z M 23.5625 -45.109375 "/></g></g><g transform="translate(65.582879, 76.261614)"><g><path d="M 23.5625 -45.109375 L 23.78125 -45.109375 C 27.800781 -45.109375 31.546875 -43.875 35.015625 -41.40625 C 35.484375 -41.050781 36.007812 -40.609375 36.59375 -40.078125 C 37.769531 -38.929688 38.445312 -38.210938 38.625 -37.921875 C 39.0625 -37.421875 39.472656 -36.847656 39.859375 -36.203125 C 41.890625 -33.003906 42.90625 -29.566406 42.90625 -25.890625 L 42.90625 -0.046875 C 42.90625 -0.015625 42.890625 0 42.859375 0 L 37.4375 0 C 37.40625 0 37.390625 -0.015625 37.390625 -0.046875 L 37.390625 -25.8125 C 37.390625 -29.269531 36.203125 -32.351562 33.828125 -35.0625 C 32.742188 -36.175781 31.960938 -36.863281 31.484375 -37.125 C 29.109375 -38.769531 26.5 -39.59375 23.65625 -39.59375 L 23.609375 -39.59375 C 20.410156 -39.59375 17.503906 -38.535156 14.890625 -36.421875 C 13.890625 -35.546875 13.210938 -34.859375 12.859375 -34.359375 C 12.148438 -33.441406 11.59375 -32.546875 11.1875 -31.671875 C 10.332031 -29.765625 9.90625 -27.898438 9.90625 -26.078125 L 9.90625 -0.046875 C 9.90625 -0.015625 9.890625 0 9.859375 0 L 4.453125 0 C 4.421875 0 4.40625 -0.015625 4.40625 -0.046875 L 4.40625 -25.890625 C 4.40625 -30.097656 5.710938 -33.976562 8.328125 -37.53125 C 8.828125 -38.144531 9.367188 -38.757812 9.953125 -39.375 C 11.210938 -40.582031 12.148438 -41.359375 12.765625 -41.703125 C 16.117188 -43.972656 19.71875 -45.109375 23.5625 -45.109375 Z M 23.5625 -45.109375 "/></g></g><g transform="translate(112.886611, 76.261614)"><g><path d="M 21.234375 -63.15625 L 26.90625 -63.15625 C 26.9375 -63.15625 26.953125 -63.140625 26.953125 -63.109375 L 26.953125 -57.5625 C 26.953125 -57.53125 26.9375 -57.515625 26.90625 -57.515625 L 21.765625 -57.515625 C 20.378906 -57.515625 19.289062 -57.265625 18.5 -56.765625 C 17.382812 -56.148438 16.546875 -55.15625 15.984375 -53.78125 C 15.785156 -53.132812 15.6875 -52.503906 15.6875 -51.890625 L 15.6875 -45.109375 L 24.671875 -45.109375 C 24.691406 -45.109375 24.703125 -45.09375 24.703125 -45.0625 L 24.703125 -39.515625 C 24.703125 -39.484375 24.691406 -39.46875 24.671875 -39.46875 L 15.6875 -39.46875 L 15.6875 -0.046875 C 15.6875 -0.015625 15.671875 0 15.640625 0 L 10.09375 0 C 10.0625 0 10.046875 -0.015625 10.046875 -0.046875 L 10.046875 -39.46875 L 4.453125 -39.46875 C 4.421875 -39.46875 4.40625 -39.484375 4.40625 -39.515625 L 4.40625 -45.109375 C 4.40625 -45.128906 4.421875 -45.140625 4.453125 -45.140625 L 10.046875 -45.140625 L 10.046875 -51.4375 C 10.046875 -53.550781 10.425781 -55.34375 11.1875 -56.8125 C 11.476562 -57.4375 11.859375 -58.070312 12.328125 -58.71875 C 13.210938 -59.800781 13.992188 -60.5625 14.671875 -61 C 16.722656 -62.4375 18.910156 -63.15625 21.234375 -63.15625 Z M 21.234375 -63.15625 "/></g></g><g transform="translate(144.246255, 76.261614)"><g><path d="M 4.453125 -63.15625 L 10.09375 -63.15625 C 10.113281 -63.15625 10.125 -63.140625 10.125 -63.109375 L 10.125 -0.046875 C 10.125 -0.015625 10.113281 0 10.09375 0 L 4.453125 0 C 4.421875 0 4.40625 -0.015625 4.40625 -0.046875 L 4.40625 -63.109375 C 4.40625 -63.140625 4.421875 -63.15625 4.453125 -63.15625 Z M 4.453125 -63.15625 "/></g></g><g transform="translate(158.780921, 76.261614)"><g><path d="M 27.875 -46.15625 L 28.09375 -46.15625 C 32.882812 -46.15625 37.347656 -44.75 41.484375 -41.9375 C 42.304688 -41.375 43.234375 -40.625 44.265625 -39.6875 C 45.316406 -38.65625 46.035156 -37.875 46.421875 -37.34375 C 47.242188 -36.289062 47.890625 -35.367188 48.359375 -34.578125 C 50.535156 -30.785156 51.625 -26.804688 51.625 -22.640625 L 51.625 -22.421875 C 51.625 -18.097656 50.445312 -13.988281 48.09375 -10.09375 C 45.25 -5.625 41.34375 -2.40625 36.375 -0.4375 C 33.644531 0.5625 30.882812 1.0625 28.09375 1.0625 L 27.875 1.0625 C 23.53125 1.0625 19.378906 -0.140625 15.421875 -2.546875 C 14.472656 -3.140625 13.382812 -3.960938 12.15625 -5.015625 C 11.070312 -6.078125 10.351562 -6.84375 10 -7.3125 C 9.207031 -8.25 8.578125 -9.085938 8.109375 -9.828125 C 5.640625 -13.785156 4.40625 -18 4.40625 -22.46875 L 4.40625 -22.6875 C 4.40625 -27.175781 5.679688 -31.429688 8.234375 -35.453125 C 8.847656 -36.421875 9.640625 -37.4375 10.609375 -38.5 C 11.523438 -39.46875 12.257812 -40.1875 12.8125 -40.65625 C 14.070312 -41.65625 15.128906 -42.390625 15.984375 -42.859375 C 19.742188 -45.054688 23.707031 -46.15625 27.875 -46.15625 Z M 10.046875 -22.546875 C 10.046875 -18.171875 11.523438 -14.222656 14.484375 -10.703125 C 15.628906 -9.492188 16.320312 -8.832031 16.5625 -8.71875 C 19.9375 -5.957031 23.753906 -4.578125 28.015625 -4.578125 L 28.0625 -4.578125 C 32.164062 -4.578125 35.921875 -5.914062 39.328125 -8.59375 C 40.585938 -9.675781 41.515625 -10.597656 42.109375 -11.359375 C 43.015625 -12.535156 43.734375 -13.695312 44.265625 -14.84375 C 45.410156 -17.363281 45.984375 -19.832031 45.984375 -22.25 L 45.984375 -22.859375 C 45.984375 -25.859375 45.144531 -28.820312 43.46875 -31.75 C 41.320312 -35.300781 38.253906 -37.859375 34.265625 -39.421875 C 32.242188 -40.148438 30.160156 -40.515625 28.015625 -40.515625 C 23.492188 -40.515625 19.457031 -38.960938 15.90625 -35.859375 C 14.8125 -34.796875 14.078125 -33.988281 13.703125 -33.4375 C 11.265625 -30.144531 10.046875 -26.515625 10.046875 -22.546875 Z M 10.046875 -22.546875 "/></g></g><g transform="translate(214.805453, 76.261614)"><g><path d="M 4.453125 -45.109375 L 10.3125 -45.109375 C 10.3125 -45.078125 10.457031 -44.601562 10.75 -43.6875 C 10.75 -43.65625 12.789062 -37.078125 16.875 -23.953125 C 19.507812 -15.378906 21.078125 -10.300781 21.578125 -8.71875 C 25.191406 -18.40625 27.789062 -25.320312 29.375 -29.46875 C 29.375 -29.5 31.078125 -34.050781 34.484375 -43.125 C 34.953125 -44.414062 35.203125 -45.078125 35.234375 -45.109375 L 41.1875 -45.109375 L 41.21875 -45.0625 C 35.675781 -30.320312 32.890625 -22.878906 32.859375 -22.734375 C 29.628906 -14.179688 27.554688 -8.644531 26.640625 -6.125 C 26.617188 -6.09375 25.84375 -4.050781 24.3125 0 L 18.359375 0 C 18.304688 -0.0820312 18.175781 -0.507812 17.96875 -1.28125 C 16.125 -7.175781 14.082031 -13.753906 11.84375 -21.015625 C 7.882812 -33.835938 5.519531 -41.484375 4.75 -43.953125 L 4.40625 -45.0625 Z M 72.015625 -45.109375 L 72.015625 -45.0625 C 67.753906 -31.289062 65.460938 -23.847656 65.140625 -22.734375 C 61.085938 -9.691406 58.957031 -2.816406 58.75 -2.109375 L 58.046875 0 L 52.15625 0 C 52.125 0 51.914062 -0.515625 51.53125 -1.546875 C 51.5 -1.597656 49.3125 -7.453125 44.96875 -19.109375 C 41.382812 -28.628906 39.535156 -33.535156 39.421875 -33.828125 L 39.421875 -33.875 L 42.421875 -41.84375 L 42.453125 -41.84375 C 42.484375 -41.75 44.804688 -35.539062 49.421875 -23.21875 C 51.941406 -16.519531 53.757812 -11.703125 54.875 -8.765625 C 58.632812 -20.890625 60.796875 -27.863281 61.359375 -29.6875 C 63.796875 -37.582031 65.394531 -42.722656 66.15625 -45.109375 Z M 72.015625 -45.109375 "/></g></g></g></g></g><g fill="#ffffff" fill-opacity="1"><g transform="translate(18.040576, 100.352525)"><g><path d="M 9.125 -63.15625 C 10.613281 -63.15625 11.875 -62.523438 12.90625 -61.265625 C 13.519531 -60.410156 13.828125 -59.484375 13.828125 -58.484375 L 13.828125 -58.453125 C 13.828125 -56.804688 13.066406 -55.46875 11.546875 -54.4375 C 10.742188 -54 9.9375 -53.78125 9.125 -53.78125 C 7.53125 -53.78125 6.207031 -54.484375 5.15625 -55.890625 C 4.65625 -56.710938 4.40625 -57.566406 4.40625 -58.453125 L 4.40625 -58.484375 C 4.40625 -60.078125 5.109375 -61.382812 6.515625 -62.40625 C 7.335938 -62.90625 8.207031 -63.15625 9.125 -63.15625 Z M 11.9375 -45.109375 L 11.9375 -0.046875 C 11.9375 -0.015625 11.921875 0 11.890625 0 L 6.34375 0 C 6.3125 0 6.296875 -0.015625 6.296875 -0.046875 L 6.296875 -45.109375 Z M 11.9375 -45.109375 "/></g></g></g><g fill="#ffffff" fill-opacity="1"><g transform="translate(36.273321, 100.352525)"><g><path d="M 23.5625 -45.109375 L 23.78125 -45.109375 C 27.800781 -45.109375 31.546875 -43.875 35.015625 -41.40625 C 35.484375 -41.050781 36.007812 -40.609375 36.59375 -40.078125 C 37.769531 -38.929688 38.445312 -38.210938 38.625 -37.921875 C 39.0625 -37.421875 39.472656 -36.847656 39.859375 -36.203125 C 41.890625 -33.003906 42.90625 -29.566406 42.90625 -25.890625 L 42.90625 -0.046875 C 42.90625 -0.015625 42.890625 0 42.859375 0 L 37.4375 0 C 37.40625 0 37.390625 -0.015625 37.390625 -0.046875 L 37.390625 -25.8125 C 37.390625 -29.269531 36.203125 -32.351562 33.828125 -35.0625 C 32.742188 -36.175781 31.960938 -36.863281 31.484375 -37.125 C 29.109375 -38.769531 26.5 -39.59375 23.65625 -39.59375 L 23.609375 -39.59375 C 20.410156 -39.59375 17.503906 -38.535156 14.890625 -36.421875 C 13.890625 -35.546875 13.210938 -34.859375 12.859375 -34.359375 C 12.148438 -33.441406 11.59375 -32.546875 11.1875 -31.671875 C 10.332031 -29.765625 9.90625 -27.898438 9.90625 -26.078125 L 9.90625 -0.046875 C 9.90625 -0.015625 9.890625 0 9.859375 0 L 4.453125 0 C 4.421875 0 4.40625 -0.015625 4.40625 -0.046875 L 4.40625 -25.890625 C 4.40625 -30.097656 5.710938 -33.976562 8.328125 -37.53125 C 8.828125 -38.144531 9.367188 -38.757812 9.953125 -39.375 C 11.210938 -40.582031 12.148438 -41.359375 12.765625 -41.703125 C 16.117188 -43.972656 19.71875 -45.109375 23.5625 -45.109375 Z M 23.5625 -45.109375 "/></g></g></g><g fill="#ffffff" fill-opacity="1"><g transform="translate(83.57276, 100.352525)"><g><path d="M 23.5625 -45.109375 L 23.78125 -45.109375 C 27.800781 -45.109375 31.546875 -43.875 35.015625 -41.40625 C 35.484375 -41.050781 36.007812 -40.609375 36.59375 -40.078125 C 37.769531 -38.929688 38.445312 -38.210938 38.625 -37.921875 C 39.0625 -37.421875 39.472656 -36.847656 39.859375 -36.203125 C 41.890625 -33.003906 42.90625 -29.566406 42.90625 -25.890625 L 42.90625 -0.046875 C 42.90625 -0.015625 42.890625 0 42.859375 0 L 37.4375 0 C 37.40625 0 37.390625 -0.015625 37.390625 -0.046875 L 37.390625 -25.8125 C 37.390625 -29.269531 36.203125 -32.351562 33.828125 -35.0625 C 32.742188 -36.175781 31.960938 -36.863281 31.484375 -37.125 C 29.109375 -38.769531 26.5 -39.59375 23.65625 -39.59375 L 23.609375 -39.59375 C 20.410156 -39.59375 17.503906 -38.535156 14.890625 -36.421875 C 13.890625 -35.546875 13.210938 -34.859375 12.859375 -34.359375 C 12.148438 -33.441406 11.59375 -32.546875 11.1875 -31.671875 C 10.332031 -29.765625 9.90625 -27.898438 9.90625 -26.078125 L 9.90625 -0.046875 C 9.90625 -0.015625 9.890625 0 9.859375 0 L 4.453125 0 C 4.421875 0 4.40625 -0.015625 4.40625 -0.046875 L 4.40625 -25.890625 C 4.40625 -30.097656 5.710938 -33.976562 8.328125 -37.53125 C 8.828125 -38.144531 9.367188 -38.757812 9.953125 -39.375 C 11.210938 -40.582031 12.148438 -41.359375 12.765625 -41.703125 C 16.117188 -43.972656 19.71875 -45.109375 23.5625 -45.109375 Z M 23.5625 -45.109375 "/></g></g></g><g fill="#ffffff" fill-opacity="1"><g transform="translate(130.872199, 100.352525)"><g><path d="M 21.234375 -63.15625 L 26.90625 -63.15625 C 26.9375 -63.15625 26.953125 -63.140625 26.953125 -63.109375 L 26.953125 -57.5625 C 26.953125 -57.53125 26.9375 -57.515625 26.90625 -57.515625 L 21.765625 -57.515625 C 20.378906 -57.515625 19.289062 -57.265625 18.5 -56.765625 C 17.382812 -56.148438 16.546875 -55.15625 15.984375 -53.78125 C 15.785156 -53.132812 15.6875 -52.503906 15.6875 -51.890625 L 15.6875 -45.109375 L 24.671875 -45.109375 C 24.691406 -45.109375 24.703125 -45.09375 24.703125 -45.0625 L 24.703125 -39.515625 C 24.703125 -39.484375 24.691406 -39.46875 24.671875 -39.46875 L 15.6875 -39.46875 L 15.6875 -0.046875 C 15.6875 -0.015625 15.671875 0 15.640625 0 L 10.09375 0 C 10.0625 0 10.046875 -0.015625 10.046875 -0.046875 L 10.046875 -39.46875 L 4.453125 -39.46875 C 4.421875 -39.46875 4.40625 -39.484375 4.40625 -39.515625 L 4.40625 -45.109375 C 4.40625 -45.128906 4.421875 -45.140625 4.453125 -45.140625 L 10.046875 -45.140625 L 10.046875 -51.4375 C 10.046875 -53.550781 10.425781 -55.34375 11.1875 -56.8125 C 11.476562 -57.4375 11.859375 -58.070312 12.328125 -58.71875 C 13.210938 -59.800781 13.992188 -60.5625 14.671875 -61 C 16.722656 -62.4375 18.910156 -63.15625 21.234375 -63.15625 Z M 21.234375 -63.15625 "/></g></g></g><g fill="#ffffff" fill-opacity="1"><g transform="translate(162.228996, 100.352525)"><g><path d="M 4.453125 -63.15625 L 10.09375 -63.15625 C 10.113281 -63.15625 10.125 -63.140625 10.125 -63.109375 L 10.125 -0.046875 C 10.125 -0.015625 10.113281 0 10.09375 0 L 4.453125 0 C 4.421875 0 4.40625 -0.015625 4.40625 -0.046875 L 4.40625 -63.109375 C 4.40625 -63.140625 4.421875 -63.15625 4.453125 -63.15625 Z M 4.453125 -63.15625 "/></g></g></g><g fill="#ffffff" fill-opacity="1"><g transform="translate(176.762343, 100.352525)"><g><path d="M 27.875 -46.15625 L 28.09375 -46.15625 C 32.882812 -46.15625 37.347656 -44.75 41.484375 -41.9375 C 42.304688 -41.375 43.234375 -40.625 44.265625 -39.6875 C 45.316406 -38.65625 46.035156 -37.875 46.421875 -37.34375 C 47.242188 -36.289062 47.890625 -35.367188 48.359375 -34.578125 C 50.535156 -30.785156 51.625 -26.804688 51.625 -22.640625 L 51.625 -22.421875 C 51.625 -18.097656 50.445312 -13.988281 48.09375 -10.09375 C 45.25 -5.625 41.34375 -2.40625 36.375 -0.4375 C 33.644531 0.5625 30.882812 1.0625 28.09375 1.0625 L 27.875 1.0625 C 23.53125 1.0625 19.378906 -0.140625 15.421875 -2.546875 C 14.472656 -3.140625 13.382812 -3.960938 12.15625 -5.015625 C 11.070312 -6.078125 10.351562 -6.84375 10 -7.3125 C 9.207031 -8.25 8.578125 -9.085938 8.109375 -9.828125 C 5.640625 -13.785156 4.40625 -18 4.40625 -22.46875 L 4.40625 -22.6875 C 4.40625 -27.175781 5.679688 -31.429688 8.234375 -35.453125 C 8.847656 -36.421875 9.640625 -37.4375 10.609375 -38.5 C 11.523438 -39.46875 12.257812 -40.1875 12.8125 -40.65625 C 14.070312 -41.65625 15.128906 -42.390625 15.984375 -42.859375 C 19.742188 -45.054688 23.707031 -46.15625 27.875 -46.15625 Z M 10.046875 -22.546875 C 10.046875 -18.171875 11.523438 -14.222656 14.484375 -10.703125 C 15.628906 -9.492188 16.320312 -8.832031 16.5625 -8.71875 C 19.9375 -5.957031 23.753906 -4.578125 28.015625 -4.578125 L 28.0625 -4.578125 C 32.164062 -4.578125 35.921875 -5.914062 39.328125 -8.59375 C 40.585938 -9.675781 41.515625 -10.597656 42.109375 -11.359375 C 43.015625 -12.535156 43.734375 -13.695312 44.265625 -14.84375 C 45.410156 -17.363281 45.984375 -19.832031 45.984375 -22.25 L 45.984375 -22.859375 C 45.984375 -25.859375 45.144531 -28.820312 43.46875 -31.75 C 41.320312 -35.300781 38.253906 -37.859375 34.265625 -39.421875 C 32.242188 -40.148438 30.160156 -40.515625 28.015625 -40.515625 C 23.492188 -40.515625 19.457031 -38.960938 15.90625 -35.859375 C 14.8125 -34.796875 14.078125 -33.988281 13.703125 -33.4375 C 11.265625 -30.144531 10.046875 -26.515625 10.046875 -22.546875 Z M 10.046875 -22.546875 "/></g></g></g><g fill="#ffffff" fill-opacity="1"><g transform="translate(232.78179, 100.352525)"><g><path d="M 4.453125 -45.109375 L 10.3125 -45.109375 C 10.3125 -45.078125 10.457031 -44.601562 10.75 -43.6875 C 10.75 -43.65625 12.789062 -37.078125 16.875 -23.953125 C 19.507812 -15.378906 21.078125 -10.300781 21.578125 -8.71875 C 25.191406 -18.40625 27.789062 -25.320312 29.375 -29.46875 C 29.375 -29.5 31.078125 -34.050781 34.484375 -43.125 C 34.953125 -44.414062 35.203125 -45.078125 35.234375 -45.109375 L 41.1875 -45.109375 L 41.21875 -45.0625 C 35.675781 -30.320312 32.890625 -22.878906 32.859375 -22.734375 C 29.628906 -14.179688 27.554688 -8.644531 26.640625 -6.125 C 26.617188 -6.09375 25.84375 -4.050781 24.3125 0 L 18.359375 0 C 18.304688 -0.0820312 18.175781 -0.507812 17.96875 -1.28125 C 16.125 -7.175781 14.082031 -13.753906 11.84375 -21.015625 C 7.882812 -33.835938 5.519531 -41.484375 4.75 -43.953125 L 4.40625 -45.0625 Z M 72.015625 -45.109375 L 72.015625 -45.0625 C 67.753906 -31.289062 65.460938 -23.847656 65.140625 -22.734375 C 61.085938 -9.691406 58.957031 -2.816406 58.75 -2.109375 L 58.046875 0 L 52.15625 0 C 52.125 0 51.914062 -0.515625 51.53125 -1.546875 C 51.5 -1.597656 49.3125 -7.453125 44.96875 -19.109375 C 41.382812 -28.628906 39.535156 -33.535156 39.421875 -33.828125 L 39.421875 -33.875 L 42.421875 -41.84375 L 42.453125 -41.84375 C 42.484375 -41.75 44.804688 -35.539062 49.421875 -23.21875 C 51.941406 -16.519531 53.757812 -11.703125 54.875 -8.765625 C 58.632812 -20.890625 60.796875 -27.863281 61.359375 -29.6875 C 63.796875 -37.582031 65.394531 -42.722656 66.15625 -45.109375 Z M 72.015625 -45.109375 "/></g></g></g></svg>