<?xml version="1.0" encoding="UTF-8"?>
<svg xmlns="http://www.w3.org/2000/svg" viewBox="0 0 100 100" width="100" height="100" role="img" aria-label="Innflow">
  <path fill="#000000" d="M 65.525 8.170 C 66.251 8.203 68.459 8.104 69.679 8.566 C 70.898 9.027 72.085 10.016 72.843 10.939 C 73.601 11.862 73.997 12.983 74.228 14.103 C 74.458 15.224 74.327 16.708 74.228 17.663 C 74.129 18.619 74.162 18.718 73.634 19.839 C 73.107 20.960 72.184 22.905 71.063 24.388 C 69.943 25.871 69.250 26.860 66.910 28.739 C 64.570 30.618 59.427 33.815 57.021 35.661 C 54.615 37.507 53.659 38.463 52.472 39.814 C 51.286 41.166 50.396 42.913 49.901 43.770 C 49.407 44.627 49.506 44.363 49.506 44.957 C 49.506 45.550 49.571 46.737 49.901 47.330 C 50.231 47.923 50.692 48.385 51.483 48.517 C 52.274 48.649 53.659 48.418 54.648 48.121 C 55.637 47.824 54.285 48.813 57.417 46.737 C 60.548 44.660 69.943 37.903 73.437 35.661 C 76.931 33.420 76.535 33.947 78.381 33.288 C 80.227 32.629 82.666 31.903 84.512 31.706 C 86.358 31.508 88.039 31.739 89.457 32.101 C 90.874 32.464 91.896 32.958 93.016 33.881 C 94.137 34.804 95.522 36.617 96.181 37.639 C 96.840 38.661 96.807 39.056 96.972 40.012 C 97.137 40.968 97.236 42.386 97.170 43.374 C 97.104 44.363 97.005 44.957 96.576 45.946 C 96.148 46.934 95.423 48.319 94.599 49.308 C 93.775 50.297 92.918 51.121 91.632 51.879 C 90.347 52.637 88.303 53.428 86.885 53.857 C 85.468 54.285 84.743 54.384 83.128 54.450 C 81.512 54.516 80.655 54.878 77.194 54.252 C 73.733 53.626 65.493 51.286 62.361 50.692 C 59.230 50.099 59.493 50.593 58.406 50.692 C 57.318 50.791 56.988 50.758 55.834 51.286 C 54.681 51.813 52.143 53.230 51.483 53.857 C 50.824 54.483 51.417 54.450 51.879 55.043 C 52.340 55.637 53.461 56.757 54.252 57.417 C 55.043 58.076 55.637 58.471 56.626 58.999 C 57.614 59.526 58.504 59.988 60.186 60.581 C 61.867 61.174 65.031 61.867 66.712 62.559 C 68.393 63.251 69.514 64.108 70.272 64.734 C 71.030 65.361 71.030 65.624 71.261 66.317 C 71.492 67.009 71.755 68.064 71.657 68.888 C 71.558 69.712 71.228 70.602 70.668 71.261 C 70.107 71.920 69.151 72.580 68.294 72.843 C 67.437 73.107 66.646 73.206 65.525 72.843 C 64.405 72.481 62.823 71.690 61.570 70.668 C 60.317 69.646 59.263 68.360 58.010 66.712 C 56.757 65.064 55.076 62.130 54.054 60.779 C 53.033 59.427 52.373 59.427 51.879 58.603 C 51.384 57.779 51.351 56.362 51.088 55.834 C 50.824 55.307 50.527 55.406 50.297 55.439 C 50.066 55.472 50.033 55.340 49.703 56.032 C 49.374 56.724 48.517 58.471 48.319 59.592 C 48.121 60.713 48.286 61.768 48.517 62.757 C 48.747 63.746 49.011 64.471 49.703 65.525 C 50.396 66.580 51.384 67.899 52.670 69.085 C 53.956 70.272 56.098 71.525 57.417 72.645 C 58.735 73.766 59.559 74.458 60.581 75.810 C 61.603 77.161 62.987 79.073 63.548 80.754 C 64.108 82.435 63.976 84.710 63.943 85.897 C 63.910 87.083 63.647 87.248 63.350 87.874 C 63.053 88.501 62.592 89.160 62.163 89.654 C 61.735 90.149 61.405 90.478 60.779 90.841 C 60.153 91.204 59.460 91.665 58.406 91.830 C 57.351 91.995 55.703 92.126 54.450 91.830 C 53.197 91.533 52.110 91.072 50.890 90.050 C 49.670 89.028 48.154 87.446 47.132 85.699 C 46.110 83.952 45.286 81.545 44.759 79.568 C 44.232 77.590 44.034 75.975 43.968 73.832 C 43.902 71.690 44.100 68.855 44.363 66.712 C 44.627 64.570 46.737 60.581 45.550 60.977 C 44.363 61.372 40.078 65.888 37.243 69.085 C 34.409 72.283 30.783 77.458 28.541 80.161 C 26.300 82.864 24.915 84.215 23.795 85.303 C 22.674 86.391 22.608 86.292 21.817 86.688 C 21.026 87.083 19.839 87.512 19.048 87.677 C 18.257 87.841 17.795 87.841 17.070 87.677 C 16.345 87.512 15.323 87.149 14.697 86.688 C 14.071 86.226 13.609 85.798 13.312 84.908 C 13.016 84.018 12.587 82.666 12.917 81.348 C 13.246 80.029 14.071 78.348 15.290 76.997 C 16.510 75.645 17.598 74.656 20.235 73.239 C 22.872 71.821 28.310 69.877 31.112 68.492 C 33.914 67.108 35.299 66.251 37.046 64.932 C 38.793 63.614 40.606 61.702 41.594 60.581 C 42.583 59.460 42.715 58.933 42.979 58.208 C 43.243 57.483 43.374 56.823 43.177 56.230 C 42.979 55.637 42.419 54.944 41.792 54.648 C 41.166 54.351 42.089 53.659 39.419 54.450 C 36.749 55.241 29.069 58.406 25.772 59.394 C 22.476 60.383 21.685 60.251 19.641 60.383 C 17.598 60.515 15.290 60.416 13.510 60.186 C 11.730 59.955 10.181 59.460 8.961 58.999 C 7.742 58.537 7.115 58.274 6.192 57.417 C 5.269 56.560 3.984 55.175 3.424 53.857 C 2.863 52.538 2.698 50.857 2.830 49.506 C 2.962 48.154 3.654 46.737 4.215 45.748 C 4.775 44.759 5.401 44.199 6.192 43.572 C 6.984 42.946 7.972 42.386 8.961 41.990 C 9.950 41.594 10.939 41.331 12.126 41.199 C 13.312 41.067 14.664 41.001 16.081 41.199 C 17.499 41.397 19.246 41.891 20.630 42.386 C 22.015 42.880 22.707 43.210 24.388 44.166 C 26.069 45.122 29.069 47.165 30.717 48.121 C 32.365 49.077 33.222 49.473 34.277 49.901 C 35.332 50.330 36.024 50.626 37.046 50.692 C 38.067 50.758 39.518 50.692 40.408 50.297 C 41.298 49.901 42.056 49.176 42.386 48.319 C 42.715 47.462 42.682 46.176 42.386 45.154 C 42.089 44.133 41.232 43.012 40.606 42.188 C 39.979 41.364 39.551 40.968 38.628 40.210 C 37.705 39.452 37.573 39.155 35.068 37.639 C 32.563 36.123 26.135 32.760 23.597 31.112 C 21.059 29.464 20.729 28.673 19.839 27.750 C 18.949 26.827 18.784 26.498 18.257 25.575 C 17.729 24.652 17.004 23.168 16.675 22.212 C 16.345 21.256 16.312 20.663 16.279 19.839 C 16.246 19.015 16.279 18.158 16.477 17.268 C 16.675 16.378 16.806 15.488 17.466 14.499 C 18.125 13.510 19.279 12.126 20.432 11.335 C 21.586 10.543 23.069 10.016 24.388 9.752 C 25.706 9.489 26.959 9.456 28.343 9.752 C 29.728 10.049 31.310 10.609 32.695 11.532 C 34.079 12.455 35.463 13.741 36.650 15.290 C 37.837 16.839 38.957 19.015 39.814 20.828 C 40.672 22.641 41.034 23.036 41.792 26.168 C 42.550 29.299 43.671 36.584 44.363 39.617 C 45.056 42.649 45.253 44.330 45.946 44.363 C 46.638 44.396 47.824 41.232 48.517 39.814 C 49.209 38.397 49.275 38.562 50.099 35.859 C 50.923 33.156 52.439 26.827 53.461 23.597 C 54.483 20.366 55.109 18.586 56.230 16.477 C 57.351 14.367 59.164 12.126 60.186 10.939 C 61.207 9.752 61.504 9.785 62.361 9.357 C 63.218 8.928 64.800 8.566 65.328 8.368 C 65.855 8.170 64.800 8.137 65.525 8.170 Z"/>
</svg>
